<svg xmlns="http://www.w3.org/2000/svg" width="73.789" height="32.238" viewBox="0 0 73.789 32.238"><defs><clipPath id="a"><path fill="none" d="M0 0h73.789v32.238H0z"/></clipPath><style>.c{fill:#fff}</style></defs><g clip-path="url(#a)"><path class="c" d="M30.527 29.123c.823.266 1.581.569 2.366.753a2.722 2.722 0 003.368-1.831 6.18 6.18 0 00.218-2.422c-.11.1-.165.146-.212.2a3.9 3.9 0 01-6.431-1.026 6.085 6.085 0 011.217-6.791 6.748 6.748 0 013.981-1.651 9.292 9.292 0 014.38.616.459.459 0 01.339.5c-.01 3.077 0 6.154-.009 9.231a5.507 5.507 0 01-5.423 5.526 5.752 5.752 0 01-4.243-1.356.362.362 0 01-.109-.515c.208-.419.387-.853.557-1.235m5.98-7.987c0-.711-.01-1.422.005-2.132a.37.37 0 00-.326-.423 2.885 2.885 0 00-1.8.083 3.108 3.108 0 00-1.919 3.7 2.1 2.1 0 001.942 1.923 2.557 2.557 0 001.81-.574.8.8 0 00.271-.526c.031-.684.013-1.37.013-2.055M28.711 24.733c.137.408.278.8.4 1.2a.3.3 0 01-.083.258 3.381 3.381 0 01-3.306.694 2.416 2.416 0 01-1.189-1.33c-.024-.055-.06-.105-.114-.2l-.485.551a3.887 3.887 0 01-6.292-1.008 5.833 5.833 0 014.21-8.444 9.387 9.387 0 015.317.518.458.458 0 01.323.515c-.009 2.06-.006 4.119 0 6.179a2.41 2.41 0 00.041.492.683.683 0 00.907.615c.086-.014.172-.026.278-.041m-4.455-3.618v-1.905c0-.551-.027-.582-.582-.672a3.042 3.042 0 00-3.531 2.993 2.844 2.844 0 00.674 2.125 2.383 2.383 0 003.329-.1.642.642 0 00.1-.383c.01-.686 0-1.372 0-2.058M30.809 2.691a7.466 7.466 0 012.565 3.115 3.851 3.851 0 01-1.061 4.265 11.741 11.741 0 01-4.342 2.331 20.393 20.393 0 01-5.437.991c-2.017.077-4.038.068-6.057.087a2.867 2.867 0 01-.564-.117c.088-.3.173-.584.254-.869.18-.633.372-1.262.53-1.9.086-.347.209-.512.624-.509a28.968 28.968 0 003.355-.107 22.951 22.951 0 004.384-.9 18.243 18.243 0 004.513-2.037 2.936 2.936 0 001.624-2.771 9.965 9.965 0 00-.389-1.573M44.466 22.927a1.9 1.9 0 00.706 1.1 3.333 3.333 0 003.252.492c.737-.222 1.441-.554 2.2-.852.188.4.42.85.6 1.317a.5.5 0 01-.152.4 5.734 5.734 0 01-2.665 1.409 7.166 7.166 0 01-4.534-.194 4.317 4.317 0 01-2.832-3.869 5.3 5.3 0 011.981-5.122 6.247 6.247 0 016.145-.926 2.821 2.821 0 011.2 4.655 4.842 4.842 0 01-3.583 1.7 17.409 17.409 0 01-1.94-.067c-.11 0-.219-.024-.383-.043m.985-1.711c.277-.026.571-.032.857-.085a2.221 2.221 0 001.695-1.031 1.181 1.181 0 00-.942-1.79 2.725 2.725 0 00-2.715 2.542.359.359 0 00.219.267 8.157 8.157 0 00.886.1M3.34 17.421a10.524 10.524 0 01-2.652-2.964A4.457 4.457 0 010 12.046a3.569 3.569 0 01.653-1.892A4.925 4.925 0 014.41 8.061a20.149 20.149 0 013.372-.122 29.434 29.434 0 015.945 1.032c.2.054.4.084.594.139s.378.126.633.213c-.422.5-.8.972-1.205 1.415s-.843.88-1.3 1.283a.753.753 0 01-.568.162 20.369 20.369 0 00-5.108-.452 5.493 5.493 0 00-3.233 1.01 2.821 2.821 0 00-1.077 2.7 4.825 4.825 0 00.778 1.787 1.355 1.355 0 01.099.193"/><path class="c" d="M3.538 16.416c2.628.5 4.748-.481 6.751-1.827a29.139 29.139 0 006.163-5.944c-.079.418-.132.843-.24 1.254a30.36 30.36 0 01-2.312 6.39 8.591 8.591 0 01-2.516 3.205 3.9 3.9 0 01-4.29.22 10.191 10.191 0 01-3.56-3.3M68.743 21.588a17.334 17.334 0 015.046 5.359 6.555 6.555 0 00-.878.006 2 2 0 01-2.146-.981 11.3 11.3 0 00-3.565-3.181 3.9 3.9 0 00-.375-.169c-.01.169-.022.277-.022.386 0 1.183-.008 2.366.006 3.548 0 .3-.09.413-.393.4a9.36 9.36 0 00-1.107 0c-.346.022-.432-.127-.431-.448.01-1.793 0-3.586 0-5.379 0-1.246.006-2.493 0-3.739a.93.93 0 01.559-.953 1.239 1.239 0 011.235.109.492.492 0 01.122.354c.01 1.157.007 2.314.008 3.472v.464a3.146 3.146 0 00.321-.231c1.273-1.238 2.534-2.487 3.821-3.71a2.209 2.209 0 01.867-.507c.581-.17 1.156.041 1.508.873l-4.578 4.33M54.094 20.128c0-.941.012-1.882-.005-2.823a.844.844 0 01.575-.888 1.262 1.262 0 011.235.149c.09.068.108.269.109.41.008 1.78 0 3.561.008 5.341a3.346 3.346 0 00.474 1.853 2.826 2.826 0 003.1 1 2.634 2.634 0 001.856-2.615c0-1.666.013-3.332.008-5 0-.457.06-.888.509-1.1a1.334 1.334 0 011.311.082.318.318 0 01.144.221c-.014 2.071.009 4.144-.08 6.213a4.4 4.4 0 01-1.07 2.749 3.776 3.776 0 01-2.462 1.284 6.806 6.806 0 01-2.719-.131 3.77 3.77 0 01-2.594-2.339 6.353 6.353 0 01-.408-2.5c.005-.636 0-1.272 0-1.907h.006M17.226 8.585c.082-.329.149-.662.248-.985a17.669 17.669 0 012.144-4.813A5.905 5.905 0 0123.984.066a6.574 6.574 0 014.022.652 5.049 5.049 0 012.229 2.633.111.111 0 01-.008.072 11.949 11.949 0 00-1.55-.513 9.457 9.457 0 00-3.445.079 14.176 14.176 0 00-3.705 1.228 8.87 8.87 0 00-3.628 3.375c-.209.328-.395.67-.591 1.006l-.082-.014"/></g></svg>